HIERARCHY
ROOT Hips
{
	OFFSET 0.000000 0.000000 0.000000
	CHANNELS 6 Xposition Yposition Zposition Xrotation Yrotation Zrotation
	JOINT LeftUpLeg_virtual
	{
		OFFSET 0.000000 0.000000 0.000000
		CHANNELS 3 Xrotation Yrotation Zrotation
		JOINT LeftUpLeg
		{
			OFFSET 13.026900 -6.336304 -1.092800
			CHANNELS 3 Xrotation Yrotation Zrotation
			JOINT LeftLeg
			{
				OFFSET 0.524474 -46.096886 9.782700
				CHANNELS 3 Xrotation Yrotation Zrotation
				JOINT LeftFoot
				{
					OFFSET -0.524474 -53.427422 -12.948200
					CHANNELS 3 Xrotation Yrotation Zrotation
					JOINT LeftToeBase
					{
						OFFSET 0.192200 -14.009700 16.364100
						CHANNELS 3 Xrotation Yrotation Zrotation
						JOINT LeftToe_End
						{
							OFFSET -1.784700 -0.561700 9.474800
							CHANNELS 3 Xrotation Yrotation Zrotation
							End Site
							{
								OFFSET 0 0 0
							}
						}
					}
				}
			}
		}
	}
	JOINT RightUpLeg_virtual
	{
		OFFSET 0.000000 0.000000 0.000000
		CHANNELS 3 Xrotation Yrotation Zrotation
		JOINT RightUpLeg
		{
			OFFSET -12.883000 -6.336304 -1.092800
			CHANNELS 3 Xrotation Yrotation Zrotation
			JOINT RightLeg
			{
				OFFSET -0.524587 -46.096825 9.782800
				CHANNELS 3 Xrotation Yrotation Zrotation
				JOINT RightFoot
				{
					OFFSET 0.524587 -53.427383 -12.948300
					CHANNELS 3 Xrotation Yrotation Zrotation
					JOINT RightToeBase
					{
						OFFSET -0.192200 -14.009700 16.364100
						CHANNELS 3 Xrotation Yrotation Zrotation
						JOINT RightToe_End
						{
							OFFSET 1.784700 -0.561700 9.474800
							CHANNELS 3 Xrotation Yrotation Zrotation
							End Site
							{
								OFFSET 0 0 0
							}
						}
					}
				}
			}
		}
	}
	JOINT Spine_virtual
	{
		OFFSET 0.000000 0.000000 0.000000
		CHANNELS 3 Xrotation Yrotation Zrotation
		JOINT Spine
		{
			OFFSET 0.072000 7.257294 -0.789700
			CHANNELS 3 Xrotation Yrotation Zrotation
			JOINT Spine1
			{
				OFFSET 0.000000 12.508769 -0.658067
				CHANNELS 3 Xrotation Yrotation Zrotation
				JOINT Spine1_split
				{
					OFFSET 0.000000 12.508769 -0.658067
					CHANNELS 3 Xrotation Yrotation Zrotation
					JOINT Spine2
					{
						OFFSET 0.000000 12.508769 -0.658067
						CHANNELS 3 Xrotation Yrotation Zrotation
						JOINT Neck_virtual
						{
							OFFSET 0.000000 0.000000 0.000000
							CHANNELS 3 Xrotation Yrotation Zrotation
							JOINT Neck
							{
								OFFSET 0.000000 14.033295 7.520400
								CHANNELS 3 Xrotation Yrotation Zrotation
								JOINT Head
								{
									OFFSET 0.000000 8.198502 5.703100
									CHANNELS 3 Xrotation Yrotation Zrotation
									JOINT HeadTop_End
									{
										OFFSET 0.000000 17.760803 13.332701
										CHANNELS 3 Xrotation Yrotation Zrotation
										End Site
										{
											OFFSET 0 0 0
										}
									}
								}
							}
						}
						JOINT LeftShoulder_virtual
						{
							OFFSET 0.000000 0.000000 0.000000
							CHANNELS 3 Xrotation Yrotation Zrotation
							JOINT LeftShoulder
							{
								OFFSET 6.292450 5.785301 -0.669000
								CHANNELS 3 Xrotation Yrotation Zrotation
								JOINT LeftShoulder_split
								{
									OFFSET 6.292450 5.785301 -0.669000
									CHANNELS 3 Xrotation Yrotation Zrotation
									JOINT LeftArm
									{
										OFFSET 13.907140 -6.093903 1.965100
										CHANNELS 3 Xrotation Yrotation Zrotation
										JOINT LeftForeArm
										{
											OFFSET 34.140198 0.000000 0.000000
											CHANNELS 3 Xrotation Yrotation Zrotation
											JOINT LeftHand
											{
												OFFSET 40.960209 0.000000 0.000000
												CHANNELS 3 Xrotation Yrotation Zrotation
												End Site
												{
													OFFSET 0 0 0
												}
											}
										}
									}
								}
							}
						}
						JOINT RightShoulder_virtual
						{
							OFFSET 0.000000 0.000000 0.000000
							CHANNELS 3 Xrotation Yrotation Zrotation
							JOINT RightShoulder
							{
								OFFSET -6.292450 5.785301 -0.669000
								CHANNELS 3 Xrotation Yrotation Zrotation
								JOINT RightShoulder_split
								{
									OFFSET -6.292450 5.785301 -0.669000
									CHANNELS 3 Xrotation Yrotation Zrotation
									JOINT RightArm
									{
										OFFSET -13.907140 -6.093903 1.965100
										CHANNELS 3 Xrotation Yrotation Zrotation
										JOINT RightForeArm
										{
											OFFSET -34.140198 0.000000 0.000000
											CHANNELS 3 Xrotation Yrotation Zrotation
											JOINT RightHand
											{
												OFFSET -40.960209 0.000000 0.000000
												CHANNELS 3 Xrotation Yrotation Zrotation
												End Site
												{
													OFFSET 0 0 0
												}
											}
										}
									}
								}
							}
						}
					}
				}
			}
		}
	}
}
MOTION
Frames: 7
Frame Time: 0.03333333
9.740509 241.889786 75.869034 0.000000 0.000000 0.000000 9.021277 17.569874 0.286474 -33.384920 17.657625 8.479745 50.380029 -1.610437 1.640522 1.786470 -0.994050 -4.826851 -0.303222 0.148464 1.888521 0.000000 0.000000 0.000000 13.545559 14.779980 -1.358354 -68.663434 3.723517 -11.520196 21.505418 6.662158 -2.630543 17.278447 13.800301 18.184322 2.461276 -0.020817 -0.213816 0.000000 0.000000 0.000000 7.894379 16.508434 0.776529 5.524198 -1.403199 -0.974070 16.684156 -3.427117 1.046246 2.002097 1.273884 0.073310 0.000000 0.000000 0.000000 15.536052 -3.251941 1.364099 -3.067766 1.536994 -7.747585 -5.253164 -7.538370 15.430244 0.000000 0.000000 0.000000 15.904507 -3.236120 1.192328 -1.141423 8.054405 5.537131 -0.009701 -0.489755 0.250053 -105.439201 -54.664794 -117.113798 0.940027 -87.587026 1.325501 0.000000 0.000000 0.000000 16.742067 -3.263476 1.371200 2.749102 13.640526 1.392275 -1.291570 0.438078 0.690786 -36.152126 41.446821 62.470891 -0.057356 54.149870 -0.939081 0.000000 0.000000 0.000000 
9.735742 235.953156 82.590096 0.000000 0.000000 0.000000 7.599581 18.337048 0.410635 -34.622721 18.720433 9.300068 49.880643 -1.172954 0.508170 4.729133 0.063330 -6.914338 0.422715 0.176518 1.598147 0.000000 0.000000 0.000000 11.321306 14.839600 -1.083714 -66.125015 2.059920 -12.007319 24.859049 7.575229 -2.815903 18.347182 16.850002 15.310479 3.090922 0.180316 -0.139930 0.000000 0.000000 0.000000 5.938760 16.968505 1.091083 6.166355 -1.108986 -1.038006 16.751519 -2.708950 1.312186 1.440561 0.730550 0.046627 0.000000 0.000000 0.000000 16.083265 -2.485576 1.636338 -3.767322 0.781043 -7.356396 -4.431459 -8.181481 15.004237 0.000000 0.000000 0.000000 16.028372 -2.452251 1.475303 -1.129716 7.063964 5.296659 1.167080 0.694195 -0.516467 -103.476690 -54.040368 -114.767942 -11.565155 -87.199632 -10.667973 0.000000 0.000000 0.000000 17.138306 -2.454538 1.857978 2.650577 13.889415 1.899366 -1.848232 0.380314 0.021381 -39.199760 40.526231 62.483882 -0.058412 51.623591 -0.945682 0.000000 0.000000 0.000000 
9.580898 228.476105 89.543823 0.000000 0.000000 0.000000 5.570177 18.019432 0.713234 -34.988153 20.079668 10.538295 48.545662 -0.661355 -0.636192 8.147159 1.235362 -8.696031 1.405745 0.356565 0.754120 0.000000 0.000000 0.000000 8.589252 14.656387 -0.793611 -62.085019 0.056621 -12.449558 27.257601 8.369762 -3.052746 20.440253 19.177687 14.553776 0.888305 0.256569 -0.329146 0.000000 0.000000 0.000000 4.008051 17.199408 1.257831 6.707373 -0.804756 -1.149616 16.634755 -2.132060 1.365993 0.640461 0.254382 0.150631 0.000000 0.000000 0.000000 16.324412 -1.872212 1.708680 -4.202320 0.217071 -7.108007 -3.655080 -8.484394 14.210008 0.000000 0.000000 0.000000 15.960600 -1.800082 1.455757 -1.056926 5.756430 5.274239 1.828318 1.669355 -0.865090 -101.266878 -52.644889 -111.696098 -11.726697 -85.542314 -10.584969 0.000000 0.000000 0.000000 17.229977 -1.706608 2.042938 2.437734 13.851917 2.135101 -1.898743 -0.076068 -0.436254 -41.783395 38.820439 63.302378 -0.171331 53.134548 -0.804831 0.000000 0.000000 0.000000 
9.626211 219.259567 96.602966 0.000000 0.000000 0.000000 2.912057 17.049349 1.373614 -34.163073 21.352706 11.397105 46.199895 -0.786124 -1.170661 11.776317 1.748867 -10.830100 1.764742 0.530839 -0.293230 0.000000 0.000000 0.000000 5.580638 14.483481 -0.249558 -56.519962 -2.179632 -12.591080 27.816091 8.622476 -3.432576 22.042796 19.766964 15.157112 -1.812248 0.162971 -0.454763 0.000000 0.000000 0.000000 1.915878 16.984589 1.687086 7.097678 -0.407981 -1.267470 16.298187 -1.640730 1.028894 0.348174 -0.066343 0.203307 0.000000 0.000000 0.000000 16.087756 -1.448434 1.381369 -4.176898 -0.004840 -7.075756 -2.611469 -8.327317 13.160210 0.000000 0.000000 0.000000 15.638954 -1.347409 0.970428 -0.936858 4.580179 5.410706 2.429533 1.801524 -0.720823 -98.967358 -51.044282 -108.253738 -7.859598 -82.626076 -6.786594 0.000000 0.000000 0.000000 16.959737 -1.124609 1.742786 2.166546 13.727939 2.100970 -1.651349 -0.607412 -0.676749 -43.251203 36.939159 64.732025 -0.230980 58.312132 -0.641978 0.000000 0.000000 0.000000 
9.906051 208.391693 103.757919 0.000000 0.000000 0.000000 -0.292378 16.072036 2.337060 -31.933330 21.731495 11.125967 42.067808 -1.661647 -1.042022 15.515198 1.367296 -12.941022 1.442775 0.572947 -1.157247 0.000000 0.000000 0.000000 2.483934 14.655991 0.647745 -49.949815 -4.624672 -12.619849 26.622595 7.324383 -3.863552 23.098424 17.445811 14.909840 -2.481811 -0.019587 -0.122480 0.000000 0.000000 0.000000 -0.218515 16.275490 2.343036 7.237653 -0.008917 -1.370270 15.720882 -1.253795 0.315396 0.426588 -0.109374 0.043058 0.000000 0.000000 0.000000 15.191140 -1.188745 0.713821 -3.425470 0.035381 -7.348080 -1.150016 -7.672471 11.994543 0.000000 0.000000 0.000000 15.101465 -1.122167 0.121643 -0.782982 3.805363 5.724901 2.122104 1.775733 -0.340712 -96.105399 -49.796232 -104.397249 -4.747396 -78.828620 -4.044357 0.000000 0.000000 0.000000 16.251474 -0.713146 1.005447 1.988699 13.640354 1.667177 -1.117923 -1.064863 -0.636948 -43.296050 35.385509 66.612820 -0.133003 65.408029 -0.563406 0.000000 0.000000 0.000000 
10.189201 196.443893 110.884331 0.000000 0.000000 0.000000 -3.559040 15.767000 3.461641 -28.338988 21.009255 9.600759 35.610701 -2.739867 -0.761830 19.097016 0.509880 -14.526813 1.443175 0.486860 -1.772511 0.000000 0.000000 0.000000 -0.356594 15.195566 1.954336 -43.241214 -6.985963 -12.630665 23.624853 4.618641 -4.300977 24.293656 12.747661 13.420558 -1.168097 -0.200923 0.581869 0.000000 0.000000 0.000000 -2.239426 15.342869 3.106331 6.988732 0.326935 -1.442368 14.796097 -0.956979 -0.514304 0.296824 0.156655 0.059915 0.000000 0.000000 0.000000 13.555860 -1.024976 -0.085384 -1.885405 0.300314 -7.784402 0.804641 -6.620289 10.934666 0.000000 0.000000 0.000000 14.303529 -1.050403 -0.809866 -0.667771 3.698746 6.121880 1.232218 1.404477 0.431634 -92.438489 -49.387875 -100.299122 -2.394466 -75.652801 -2.350563 0.000000 0.000000 0.000000 15.100568 -0.426699 0.105890 1.968888 13.627802 0.958080 -0.366096 -1.484179 -0.388270 -41.815897 34.288076 68.454499 0.117535 71.746711 -0.644954 0.000000 0.000000 0.000000 
10.685430 183.529678 117.552353 0.000000 0.000000 0.000000 -6.256838 15.961594 4.310664 -24.705754 19.294758 7.639793 27.882345 -3.076736 -0.715036 22.401813 -0.140051 -15.441231 2.425589 0.332319 -2.351104 0.000000 0.000000 0.000000 -2.852029 15.780372 3.236250 -37.636900 -8.376251 -12.691311 20.107966 2.265874 -4.800558 26.251752 7.949915 12.602611 -0.559847 -0.249424 1.032876 0.000000 0.000000 0.000000 -4.294580 14.671859 3.730242 6.337211 0.427802 -1.587099 13.537424 -0.686779 -1.068026 0.841706 0.010603 0.100503 0.000000 0.000000 0.000000 11.475429 -0.857141 -0.649354 -0.041406 0.677824 -8.253179 2.947984 -5.672934 10.188618 0.000000 0.000000 0.000000 13.252083 -0.990613 -1.340181 -0.577997 4.130529 6.595236 0.126005 1.324175 0.883833 -87.605208 -49.755749 -96.015487 -0.593321 -74.305929 -1.267912 0.000000 0.000000 0.000000 13.524719 -0.254797 -0.524695 2.038709 13.609411 0.206971 0.237717 -1.601861 0.179321 -39.280510 33.341579 70.208976 0.589786 75.245325 -0.988964 0.000000 0.000000 0.000000 
